<mxfile host="Electron" agent="Mozilla/5.0 (Windows NT 10.0; Win64; x64) AppleWebKit/537.36 (KHTML, like Gecko) draw.io/25.0.2 Chrome/128.0.6613.186 Electron/32.2.5 Safari/537.36" version="25.0.2">
  <diagram name="Page-1" id="JPhfY46BZoYC_x1wJi27">
    <mxGraphModel dx="1836" dy="1006" grid="1" gridSize="10" guides="1" tooltips="1" connect="1" arrows="1" fold="1" page="0" pageScale="1" pageWidth="850" pageHeight="1100" background="none" math="0" shadow="1">
      <root>
        <mxCell id="0" />
        <mxCell id="1" parent="0" />
        <mxCell id="t5Fg0YKXx1d9ERBlGr_o-64" value="" style="shape=link;html=1;rounded=0;edgeStyle=orthogonalEdgeStyle;width=5.238095238095237;exitX=1;exitY=0.5;exitDx=0;exitDy=0;entryX=0.504;entryY=0.064;entryDx=0;entryDy=0;entryPerimeter=0;" parent="1" source="BDL2UbOn3JsSijbBYsNf-133" edge="1">
          <mxGeometry relative="1" as="geometry">
            <mxPoint x="1075" y="126.83" as="sourcePoint" />
            <mxPoint x="1250.48" y="453.17000000000013" as="targetPoint" />
          </mxGeometry>
        </mxCell>
        <mxCell id="t5Fg0YKXx1d9ERBlGr_o-66" value="N" style="resizable=0;html=1;whiteSpace=wrap;align=right;verticalAlign=bottom;" parent="t5Fg0YKXx1d9ERBlGr_o-64" connectable="0" vertex="1">
          <mxGeometry x="1" relative="1" as="geometry">
            <mxPoint x="-140" y="-5" as="offset" />
          </mxGeometry>
        </mxCell>
        <mxCell id="BDL2UbOn3JsSijbBYsNf-130" value="" style="endArrow=none;html=1;rounded=0;fontFamily=Helvetica;fontSize=12;fontColor=default;exitX=0.966;exitY=0.087;exitDx=0;exitDy=0;exitPerimeter=0;entryX=-0.012;entryY=0.603;entryDx=0;entryDy=0;entryPerimeter=0;" parent="1" source="BDL2UbOn3JsSijbBYsNf-97" target="BDL2UbOn3JsSijbBYsNf-133" edge="1">
          <mxGeometry relative="1" as="geometry">
            <mxPoint x="490" y="125" as="sourcePoint" />
            <mxPoint x="950.3809175037202" y="130" as="targetPoint" />
          </mxGeometry>
        </mxCell>
        <mxCell id="BDL2UbOn3JsSijbBYsNf-131" value="M" style="resizable=0;html=1;whiteSpace=wrap;align=left;verticalAlign=bottom;rounded=1;strokeColor=default;fontFamily=Helvetica;fontSize=12;fontColor=default;fillColor=default;" parent="BDL2UbOn3JsSijbBYsNf-130" connectable="0" vertex="1">
          <mxGeometry x="-1" relative="1" as="geometry" />
        </mxCell>
        <mxCell id="BDL2UbOn3JsSijbBYsNf-132" value="N" style="resizable=0;html=1;whiteSpace=wrap;align=right;verticalAlign=bottom;rounded=1;strokeColor=default;fontFamily=Helvetica;fontSize=12;fontColor=default;fillColor=default;" parent="BDL2UbOn3JsSijbBYsNf-130" connectable="0" vertex="1">
          <mxGeometry x="1" relative="1" as="geometry">
            <mxPoint x="-10" as="offset" />
          </mxGeometry>
        </mxCell>
        <mxCell id="BDL2UbOn3JsSijbBYsNf-129" value="Stay" style="shape=rhombus;perimeter=rhombusPerimeter;whiteSpace=wrap;html=1;align=center;rounded=1;strokeColor=#d6b656;verticalAlign=middle;fontFamily=Helvetica;fontSize=16;fillColor=#fff2cc;" parent="1" vertex="1">
          <mxGeometry x="660" y="100" width="120" height="60" as="geometry" />
        </mxCell>
        <mxCell id="BDL2UbOn3JsSijbBYsNf-98" value="" style="endArrow=none;html=1;rounded=0;fontFamily=Helvetica;fontSize=12;fontColor=default;exitX=0.5;exitY=0;exitDx=0;exitDy=0;entryX=0.5;entryY=1;entryDx=0;entryDy=0;" parent="1" source="BDL2UbOn3JsSijbBYsNf-1" target="BDL2UbOn3JsSijbBYsNf-97" edge="1">
          <mxGeometry relative="1" as="geometry">
            <mxPoint x="437.29000000000013" y="369.755" as="sourcePoint" />
            <mxPoint x="432.7" y="180" as="targetPoint" />
          </mxGeometry>
        </mxCell>
        <mxCell id="BDL2UbOn3JsSijbBYsNf-99" value="M" style="resizable=0;html=1;whiteSpace=wrap;align=left;verticalAlign=bottom;rounded=1;strokeColor=default;fontFamily=Helvetica;fontSize=12;fontColor=default;fillColor=default;" parent="BDL2UbOn3JsSijbBYsNf-98" connectable="0" vertex="1">
          <mxGeometry x="-1" relative="1" as="geometry">
            <mxPoint x="-14" as="offset" />
          </mxGeometry>
        </mxCell>
        <mxCell id="BDL2UbOn3JsSijbBYsNf-100" value="N" style="resizable=0;html=1;whiteSpace=wrap;align=right;verticalAlign=bottom;rounded=1;strokeColor=default;fontFamily=Helvetica;fontSize=12;fontColor=default;fillColor=default;" parent="BDL2UbOn3JsSijbBYsNf-98" connectable="0" vertex="1">
          <mxGeometry x="1" relative="1" as="geometry">
            <mxPoint y="20" as="offset" />
          </mxGeometry>
        </mxCell>
        <mxCell id="BDL2UbOn3JsSijbBYsNf-1" value="Doctor" style="whiteSpace=wrap;html=1;align=center;fillColor=#f8cecc;strokeColor=#b85450;fontSize=15;rounded=1;" parent="1" vertex="1">
          <mxGeometry x="390" y="360" width="95" height="35" as="geometry" />
        </mxCell>
        <mxCell id="BDL2UbOn3JsSijbBYsNf-8" value="Doctor_ID" style="ellipse;whiteSpace=wrap;html=1;align=center;fontStyle=4;fillColor=#dae8fc;strokeColor=#6c8ebf;fontSize=13;rounded=1;" parent="1" vertex="1">
          <mxGeometry x="440" y="310" width="90" height="35" as="geometry" />
        </mxCell>
        <mxCell id="BDL2UbOn3JsSijbBYsNf-29" value="Degree" style="ellipse;whiteSpace=wrap;html=1;align=center;fillColor=#dae8fc;strokeColor=#6c8ebf;fontSize=13;rounded=1;" parent="1" vertex="1">
          <mxGeometry x="522.5" y="360" width="90" height="35" as="geometry" />
        </mxCell>
        <mxCell id="BDL2UbOn3JsSijbBYsNf-32" value="" style="endArrow=none;html=1;entryX=0.368;entryY=0.98;entryDx=0;entryDy=0;exitX=0.802;exitY=-0.003;exitDx=0;exitDy=0;exitPerimeter=0;rounded=1;entryPerimeter=0;" parent="1" source="BDL2UbOn3JsSijbBYsNf-1" target="BDL2UbOn3JsSijbBYsNf-8" edge="1">
          <mxGeometry width="50" height="50" relative="1" as="geometry">
            <mxPoint x="464.66" y="300" as="sourcePoint" />
            <mxPoint x="464.66" y="250" as="targetPoint" />
            <Array as="points" />
          </mxGeometry>
        </mxCell>
        <mxCell id="BDL2UbOn3JsSijbBYsNf-35" value="" style="endArrow=none;html=1;entryX=0;entryY=0.5;entryDx=0;entryDy=0;exitX=1;exitY=0.5;exitDx=0;exitDy=0;rounded=1;" parent="1" source="BDL2UbOn3JsSijbBYsNf-1" target="BDL2UbOn3JsSijbBYsNf-29" edge="1">
          <mxGeometry width="50" height="50" relative="1" as="geometry">
            <mxPoint x="469" y="317.15999999999997" as="sourcePoint" />
            <mxPoint x="539" y="317.15999999999997" as="targetPoint" />
          </mxGeometry>
        </mxCell>
        <mxCell id="BDL2UbOn3JsSijbBYsNf-36" value="Years_of_exp" style="ellipse;whiteSpace=wrap;html=1;align=center;fillColor=#dae8fc;strokeColor=#6c8ebf;fontSize=13;rounded=1;" parent="1" vertex="1">
          <mxGeometry x="520" y="405" width="90" height="30" as="geometry" />
        </mxCell>
        <mxCell id="BDL2UbOn3JsSijbBYsNf-37" value="" style="endArrow=none;html=1;exitX=0;exitY=0;exitDx=0;exitDy=0;entryX=0.966;entryY=0.967;entryDx=0;entryDy=0;rounded=1;entryPerimeter=0;" parent="1" source="BDL2UbOn3JsSijbBYsNf-36" target="BDL2UbOn3JsSijbBYsNf-1" edge="1">
          <mxGeometry width="50" height="50" relative="1" as="geometry">
            <mxPoint x="464.66" y="395" as="sourcePoint" />
            <mxPoint x="464.66" y="335" as="targetPoint" />
          </mxGeometry>
        </mxCell>
        <mxCell id="BDL2UbOn3JsSijbBYsNf-38" value="Name" style="ellipse;whiteSpace=wrap;html=1;align=center;rounded=1;fillColor=#dae8fc;strokeColor=#6c8ebf;fontSize=13;" parent="1" vertex="1">
          <mxGeometry x="432.5" y="420" width="90" height="35" as="geometry" />
        </mxCell>
        <mxCell id="BDL2UbOn3JsSijbBYsNf-39" value="" style="endArrow=none;html=1;rounded=1;entryX=0.818;entryY=1.011;entryDx=0;entryDy=0;entryPerimeter=0;" parent="1" target="BDL2UbOn3JsSijbBYsNf-1" edge="1">
          <mxGeometry width="50" height="50" relative="1" as="geometry">
            <mxPoint x="463" y="422" as="sourcePoint" />
            <mxPoint x="420" y="335" as="targetPoint" />
          </mxGeometry>
        </mxCell>
        <mxCell id="BDL2UbOn3JsSijbBYsNf-40" value="last_name" style="ellipse;whiteSpace=wrap;html=1;align=center;rounded=1;fillColor=#dae8fc;strokeColor=#6c8ebf;fontSize=12;" parent="1" vertex="1">
          <mxGeometry x="440" y="470" width="85" height="30" as="geometry" />
        </mxCell>
        <mxCell id="BDL2UbOn3JsSijbBYsNf-42" value="" style="endArrow=none;html=1;rounded=1;exitX=0.602;exitY=0.015;exitDx=0;exitDy=0;exitPerimeter=0;entryX=0.802;entryY=0.89;entryDx=0;entryDy=0;entryPerimeter=0;" parent="1" source="BDL2UbOn3JsSijbBYsNf-40" target="BDL2UbOn3JsSijbBYsNf-38" edge="1">
          <mxGeometry width="50" height="50" relative="1" as="geometry">
            <mxPoint x="370" y="360" as="sourcePoint" />
            <mxPoint x="400" y="410" as="targetPoint" />
            <Array as="points" />
          </mxGeometry>
        </mxCell>
        <mxCell id="BDL2UbOn3JsSijbBYsNf-43" value="Exmain" style="shape=rhombus;perimeter=rhombusPerimeter;whiteSpace=wrap;html=1;align=center;rounded=1;fillColor=#fff2cc;strokeColor=#d6b656;fontSize=16;" parent="1" vertex="1">
          <mxGeometry x="370" y="220" width="120" height="60" as="geometry" />
        </mxCell>
        <mxCell id="BDL2UbOn3JsSijbBYsNf-50" value="" style="endArrow=none;html=1;rounded=1;fontFamily=Helvetica;fontSize=12;fontColor=default;exitX=0.812;exitY=0.673;exitDx=0;exitDy=0;exitPerimeter=0;entryX=0;entryY=0.5;entryDx=0;entryDy=0;" parent="1" source="BDL2UbOn3JsSijbBYsNf-43" target="BDL2UbOn3JsSijbBYsNf-52" edge="1">
          <mxGeometry width="50" height="50" relative="1" as="geometry">
            <mxPoint x="460" y="190" as="sourcePoint" />
            <mxPoint x="510" y="160" as="targetPoint" />
          </mxGeometry>
        </mxCell>
        <mxCell id="BDL2UbOn3JsSijbBYsNf-52" value="Date" style="ellipse;whiteSpace=wrap;html=1;align=center;rounded=1;strokeColor=#6c8ebf;verticalAlign=middle;fontFamily=Helvetica;fontSize=12;fillColor=#dae8fc;" parent="1" vertex="1">
          <mxGeometry x="500" y="250" width="90" height="35" as="geometry" />
        </mxCell>
        <mxCell id="BDL2UbOn3JsSijbBYsNf-53" value="" style="endArrow=none;html=1;rounded=1;fontFamily=Helvetica;fontSize=12;fontColor=default;exitX=0.871;exitY=0.385;exitDx=0;exitDy=0;exitPerimeter=0;entryX=0.027;entryY=0.654;entryDx=0;entryDy=0;entryPerimeter=0;" parent="1" source="BDL2UbOn3JsSijbBYsNf-43" target="BDL2UbOn3JsSijbBYsNf-54" edge="1">
          <mxGeometry width="50" height="50" relative="1" as="geometry">
            <mxPoint x="470" y="132" as="sourcePoint" />
            <mxPoint x="520" y="120" as="targetPoint" />
          </mxGeometry>
        </mxCell>
        <mxCell id="BDL2UbOn3JsSijbBYsNf-54" value="Diagnosis" style="ellipse;whiteSpace=wrap;html=1;align=center;rounded=1;strokeColor=#6c8ebf;verticalAlign=middle;fontFamily=Helvetica;fontSize=13;fillColor=#dae8fc;" parent="1" vertex="1">
          <mxGeometry x="500" y="210" width="90" height="35" as="geometry" />
        </mxCell>
        <mxCell id="BDL2UbOn3JsSijbBYsNf-92" value="first_name" style="ellipse;whiteSpace=wrap;html=1;align=center;rounded=1;strokeColor=#6c8ebf;verticalAlign=middle;fontFamily=Helvetica;fontSize=12;fillColor=#dae8fc;" parent="1" vertex="1">
          <mxGeometry x="527.5" y="470" width="85" height="30" as="geometry" />
        </mxCell>
        <mxCell id="BDL2UbOn3JsSijbBYsNf-96" value="" style="endArrow=none;html=1;rounded=1;fontFamily=Helvetica;fontSize=12;fontColor=default;entryX=0.973;entryY=0.675;entryDx=0;entryDy=0;entryPerimeter=0;exitX=0.034;exitY=0.35;exitDx=0;exitDy=0;exitPerimeter=0;" parent="1" source="BDL2UbOn3JsSijbBYsNf-92" target="BDL2UbOn3JsSijbBYsNf-38" edge="1">
          <mxGeometry width="50" height="50" relative="1" as="geometry">
            <mxPoint x="550" y="450" as="sourcePoint" />
            <mxPoint x="475" y="485" as="targetPoint" />
          </mxGeometry>
        </mxCell>
        <mxCell id="BDL2UbOn3JsSijbBYsNf-97" value="Patient" style="whiteSpace=wrap;html=1;align=center;rounded=1;strokeColor=#b85450;verticalAlign=middle;fontFamily=Helvetica;fontSize=14;fillColor=#f8cecc;" parent="1" vertex="1">
          <mxGeometry x="390" y="125" width="95" height="35" as="geometry" />
        </mxCell>
        <mxCell id="BDL2UbOn3JsSijbBYsNf-101" value="" style="endArrow=none;html=1;rounded=1;fontFamily=Helvetica;fontSize=12;fontColor=default;exitX=0.597;exitY=1.012;exitDx=0;exitDy=0;exitPerimeter=0;entryX=0.254;entryY=0.075;entryDx=0;entryDy=0;entryPerimeter=0;" parent="1" source="BDL2UbOn3JsSijbBYsNf-97" target="BDL2UbOn3JsSijbBYsNf-102" edge="1">
          <mxGeometry width="50" height="50" relative="1" as="geometry">
            <mxPoint x="480" y="170" as="sourcePoint" />
            <mxPoint x="510" y="170" as="targetPoint" />
          </mxGeometry>
        </mxCell>
        <mxCell id="BDL2UbOn3JsSijbBYsNf-102" value="Gender" style="ellipse;whiteSpace=wrap;html=1;align=center;rounded=1;strokeColor=#6c8ebf;verticalAlign=middle;fontFamily=Helvetica;fontSize=13;fillColor=#dae8fc;" parent="1" vertex="1">
          <mxGeometry x="442.5" y="170" width="80" height="35" as="geometry" />
        </mxCell>
        <mxCell id="BDL2UbOn3JsSijbBYsNf-104" value="" style="endArrow=none;html=1;rounded=1;fontFamily=Helvetica;fontSize=12;fontColor=default;exitX=0.631;exitY=0;exitDx=0;exitDy=0;exitPerimeter=0;entryX=0.106;entryY=0.82;entryDx=0;entryDy=0;entryPerimeter=0;" parent="1" source="BDL2UbOn3JsSijbBYsNf-97" target="BDL2UbOn3JsSijbBYsNf-105" edge="1">
          <mxGeometry width="50" height="50" relative="1" as="geometry">
            <mxPoint x="480" y="150" as="sourcePoint" />
            <mxPoint x="510" y="130" as="targetPoint" />
          </mxGeometry>
        </mxCell>
        <mxCell id="BDL2UbOn3JsSijbBYsNf-105" value="Email" style="ellipse;whiteSpace=wrap;html=1;align=center;rounded=1;strokeColor=#6c8ebf;verticalAlign=middle;fontFamily=Helvetica;fontSize=13;fillColor=#dae8fc;" parent="1" vertex="1">
          <mxGeometry x="450" y="75" width="90" height="35" as="geometry" />
        </mxCell>
        <mxCell id="BDL2UbOn3JsSijbBYsNf-106" value="" style="endArrow=none;html=1;rounded=1;fontFamily=Helvetica;fontSize=12;fontColor=default;entryX=0.444;entryY=1.004;entryDx=0;entryDy=0;entryPerimeter=0;" parent="1" source="BDL2UbOn3JsSijbBYsNf-97" target="BDL2UbOn3JsSijbBYsNf-107" edge="1">
          <mxGeometry width="50" height="50" relative="1" as="geometry">
            <mxPoint x="470" y="140" as="sourcePoint" />
            <mxPoint x="470" y="110" as="targetPoint" />
          </mxGeometry>
        </mxCell>
        <mxCell id="BDL2UbOn3JsSijbBYsNf-107" value="Address" style="ellipse;whiteSpace=wrap;html=1;align=center;rounded=1;strokeColor=#6c8ebf;verticalAlign=middle;fontFamily=Helvetica;fontSize=13;fillColor=#dae8fc;" parent="1" vertex="1">
          <mxGeometry x="380" y="42.5" width="90" height="35" as="geometry" />
        </mxCell>
        <mxCell id="BDL2UbOn3JsSijbBYsNf-108" value="" style="endArrow=none;html=1;rounded=1;fontFamily=Helvetica;fontSize=12;fontColor=default;exitX=0.921;exitY=0.234;exitDx=0;exitDy=0;exitPerimeter=0;entryX=0.323;entryY=1.03;entryDx=0;entryDy=0;entryPerimeter=0;" parent="1" source="BDL2UbOn3JsSijbBYsNf-107" target="BDL2UbOn3JsSijbBYsNf-110" edge="1">
          <mxGeometry width="50" height="50" relative="1" as="geometry">
            <mxPoint x="505" y="90" as="sourcePoint" />
            <mxPoint x="530" y="70" as="targetPoint" />
          </mxGeometry>
        </mxCell>
        <mxCell id="BDL2UbOn3JsSijbBYsNf-110" value="City" style="ellipse;whiteSpace=wrap;html=1;align=center;rounded=1;strokeColor=#6c8ebf;verticalAlign=middle;fontFamily=Helvetica;fontSize=12;fillColor=#dae8fc;" parent="1" vertex="1">
          <mxGeometry x="465" y="-10" width="85" height="30" as="geometry" />
        </mxCell>
        <mxCell id="BDL2UbOn3JsSijbBYsNf-111" value="" style="endArrow=none;html=1;rounded=1;fontFamily=Helvetica;fontSize=12;fontColor=default;exitX=0.799;exitY=0.09;exitDx=0;exitDy=0;exitPerimeter=0;entryX=0.544;entryY=0.966;entryDx=0;entryDy=0;entryPerimeter=0;" parent="1" source="BDL2UbOn3JsSijbBYsNf-107" target="BDL2UbOn3JsSijbBYsNf-112" edge="1">
          <mxGeometry width="50" height="50" relative="1" as="geometry">
            <mxPoint x="430" y="70" as="sourcePoint" />
            <mxPoint x="490" y="60" as="targetPoint" />
          </mxGeometry>
        </mxCell>
        <mxCell id="BDL2UbOn3JsSijbBYsNf-112" value="Street" style="ellipse;whiteSpace=wrap;html=1;align=center;rounded=1;strokeColor=#6c8ebf;verticalAlign=middle;fontFamily=Helvetica;fontSize=12;fillColor=#dae8fc;" parent="1" vertex="1">
          <mxGeometry x="425" y="-50" width="85" height="30" as="geometry" />
        </mxCell>
        <mxCell id="BDL2UbOn3JsSijbBYsNf-113" value="" style="endArrow=none;html=1;rounded=1;fontFamily=Helvetica;fontSize=12;fontColor=default;exitX=0.547;exitY=-0.01;exitDx=0;exitDy=0;exitPerimeter=0;entryX=0.42;entryY=1.008;entryDx=0;entryDy=0;entryPerimeter=0;" parent="1" source="BDL2UbOn3JsSijbBYsNf-107" target="BDL2UbOn3JsSijbBYsNf-114" edge="1">
          <mxGeometry width="50" height="50" relative="1" as="geometry">
            <mxPoint x="463" y="79" as="sourcePoint" />
            <mxPoint x="470" y="60" as="targetPoint" />
          </mxGeometry>
        </mxCell>
        <mxCell id="BDL2UbOn3JsSijbBYsNf-114" value="Country" style="ellipse;whiteSpace=wrap;html=1;align=center;rounded=1;strokeColor=#6c8ebf;verticalAlign=middle;fontFamily=Helvetica;fontSize=12;fillColor=#dae8fc;" parent="1" vertex="1">
          <mxGeometry x="340" y="-40" width="85" height="30" as="geometry" />
        </mxCell>
        <mxCell id="BDL2UbOn3JsSijbBYsNf-115" value="" style="endArrow=none;html=1;rounded=1;fontFamily=Helvetica;fontSize=12;fontColor=default;exitX=0;exitY=0;exitDx=0;exitDy=0;entryX=0.63;entryY=0.995;entryDx=0;entryDy=0;entryPerimeter=0;" parent="1" source="BDL2UbOn3JsSijbBYsNf-107" target="BDL2UbOn3JsSijbBYsNf-116" edge="1">
          <mxGeometry width="50" height="50" relative="1" as="geometry">
            <mxPoint x="410" y="100" as="sourcePoint" />
            <mxPoint x="410" y="70" as="targetPoint" />
          </mxGeometry>
        </mxCell>
        <mxCell id="BDL2UbOn3JsSijbBYsNf-116" value="Bulding" style="ellipse;whiteSpace=wrap;html=1;align=center;rounded=1;strokeColor=#6c8ebf;verticalAlign=middle;fontFamily=Helvetica;fontSize=12;fillColor=#dae8fc;" parent="1" vertex="1">
          <mxGeometry x="285" y="-10" width="85" height="30" as="geometry" />
        </mxCell>
        <mxCell id="BDL2UbOn3JsSijbBYsNf-117" value="" style="endArrow=none;html=1;rounded=1;fontFamily=Helvetica;fontSize=12;fontColor=default;entryX=0.008;entryY=0.082;entryDx=0;entryDy=0;entryPerimeter=0;exitX=0.599;exitY=0.992;exitDx=0;exitDy=0;exitPerimeter=0;" parent="1" source="BDL2UbOn3JsSijbBYsNf-118" target="BDL2UbOn3JsSijbBYsNf-97" edge="1">
          <mxGeometry width="50" height="50" relative="1" as="geometry">
            <mxPoint x="340" y="130" as="sourcePoint" />
            <mxPoint x="370" y="110" as="targetPoint" />
          </mxGeometry>
        </mxCell>
        <mxCell id="BDL2UbOn3JsSijbBYsNf-118" value="Patient_ID" style="ellipse;whiteSpace=wrap;html=1;align=center;fontStyle=4;rounded=1;strokeColor=#6c8ebf;verticalAlign=middle;fontFamily=Helvetica;fontSize=13;fillColor=#dae8fc;" parent="1" vertex="1">
          <mxGeometry x="320" y="90" width="90" height="35" as="geometry" />
        </mxCell>
        <mxCell id="BDL2UbOn3JsSijbBYsNf-119" value="" style="endArrow=none;html=1;rounded=1;fontFamily=Helvetica;fontSize=12;fontColor=default;entryX=0.322;entryY=0.996;entryDx=0;entryDy=0;entryPerimeter=0;exitX=0.684;exitY=0.099;exitDx=0;exitDy=0;exitPerimeter=0;" parent="1" source="BDL2UbOn3JsSijbBYsNf-120" target="BDL2UbOn3JsSijbBYsNf-97" edge="1">
          <mxGeometry width="50" height="50" relative="1" as="geometry">
            <mxPoint x="410" y="200" as="sourcePoint" />
            <mxPoint x="410" y="180" as="targetPoint" />
          </mxGeometry>
        </mxCell>
        <mxCell id="BDL2UbOn3JsSijbBYsNf-120" value="Phone_Num" style="ellipse;shape=doubleEllipse;margin=3;whiteSpace=wrap;html=1;align=center;rounded=1;strokeColor=#6c8ebf;verticalAlign=middle;fontFamily=Helvetica;fontSize=13;fillColor=#dae8fc;" parent="1" vertex="1">
          <mxGeometry x="340" y="185" width="90" height="35" as="geometry" />
        </mxCell>
        <mxCell id="BDL2UbOn3JsSijbBYsNf-121" value="" style="endArrow=none;html=1;rounded=1;fontFamily=Helvetica;fontSize=12;fontColor=default;entryX=0;entryY=0.25;entryDx=0;entryDy=0;exitX=1;exitY=0.5;exitDx=0;exitDy=0;" parent="1" source="BDL2UbOn3JsSijbBYsNf-122" target="BDL2UbOn3JsSijbBYsNf-97" edge="1">
          <mxGeometry width="50" height="50" relative="1" as="geometry">
            <mxPoint x="330" y="140" as="sourcePoint" />
            <mxPoint x="370" y="160" as="targetPoint" />
          </mxGeometry>
        </mxCell>
        <mxCell id="BDL2UbOn3JsSijbBYsNf-122" value="Name" style="ellipse;whiteSpace=wrap;html=1;align=center;rounded=1;strokeColor=#6c8ebf;verticalAlign=middle;fontFamily=Helvetica;fontSize=13;fillColor=#dae8fc;" parent="1" vertex="1">
          <mxGeometry x="240" y="115" width="90" height="35" as="geometry" />
        </mxCell>
        <mxCell id="BDL2UbOn3JsSijbBYsNf-124" value="" style="endArrow=none;html=1;rounded=1;fontFamily=Helvetica;fontSize=12;fontColor=default;exitX=0.661;exitY=0.042;exitDx=0;exitDy=0;exitPerimeter=0;entryX=0.661;entryY=0.983;entryDx=0;entryDy=0;entryPerimeter=0;" parent="1" source="BDL2UbOn3JsSijbBYsNf-122" target="BDL2UbOn3JsSijbBYsNf-125" edge="1">
          <mxGeometry width="50" height="50" relative="1" as="geometry">
            <mxPoint x="280" y="110" as="sourcePoint" />
            <mxPoint x="300" y="80" as="targetPoint" />
          </mxGeometry>
        </mxCell>
        <mxCell id="BDL2UbOn3JsSijbBYsNf-125" value="first_name" style="ellipse;whiteSpace=wrap;html=1;align=center;rounded=1;strokeColor=#6c8ebf;verticalAlign=middle;fontFamily=Helvetica;fontSize=12;fillColor=#dae8fc;" parent="1" vertex="1">
          <mxGeometry x="240" y="45" width="85" height="30" as="geometry" />
        </mxCell>
        <mxCell id="BDL2UbOn3JsSijbBYsNf-126" value="" style="endArrow=none;html=1;rounded=1;fontFamily=Helvetica;fontSize=12;fontColor=default;exitX=0.267;exitY=0.065;exitDx=0;exitDy=0;exitPerimeter=0;entryX=0.783;entryY=0.909;entryDx=0;entryDy=0;entryPerimeter=0;" parent="1" source="BDL2UbOn3JsSijbBYsNf-122" target="BDL2UbOn3JsSijbBYsNf-127" edge="1">
          <mxGeometry width="50" height="50" relative="1" as="geometry">
            <mxPoint x="170" y="122.5" as="sourcePoint" />
            <mxPoint x="230" y="90" as="targetPoint" />
          </mxGeometry>
        </mxCell>
        <mxCell id="BDL2UbOn3JsSijbBYsNf-127" value="last_name" style="ellipse;whiteSpace=wrap;html=1;align=center;rounded=1;strokeColor=#6c8ebf;verticalAlign=middle;fontFamily=Helvetica;fontSize=12;fillColor=#dae8fc;" parent="1" vertex="1">
          <mxGeometry x="170" y="70" width="85" height="30" as="geometry" />
        </mxCell>
        <mxCell id="BDL2UbOn3JsSijbBYsNf-133" value="Room" style="rounded=1;arcSize=10;whiteSpace=wrap;html=1;align=center;strokeColor=#b85450;verticalAlign=middle;fontFamily=Helvetica;fontSize=14;fillColor=#f8cecc;" parent="1" vertex="1">
          <mxGeometry x="980" y="110" width="95" height="35" as="geometry" />
        </mxCell>
        <mxCell id="BDL2UbOn3JsSijbBYsNf-135" value="" style="endArrow=none;html=1;rounded=1;fontFamily=Helvetica;fontSize=12;fontColor=default;exitX=0.723;exitY=0.23;exitDx=0;exitDy=0;exitPerimeter=0;entryX=0.361;entryY=0.975;entryDx=0;entryDy=0;entryPerimeter=0;" parent="1" source="BDL2UbOn3JsSijbBYsNf-129" target="BDL2UbOn3JsSijbBYsNf-137" edge="1">
          <mxGeometry width="50" height="50" relative="1" as="geometry">
            <mxPoint x="750" y="115" as="sourcePoint" />
            <mxPoint x="780" y="80" as="targetPoint" />
          </mxGeometry>
        </mxCell>
        <mxCell id="BDL2UbOn3JsSijbBYsNf-137" value="Leave" style="ellipse;whiteSpace=wrap;html=1;align=center;rounded=1;strokeColor=#6c8ebf;verticalAlign=middle;fontFamily=Helvetica;fontSize=13;fillColor=#dae8fc;" parent="1" vertex="1">
          <mxGeometry x="750" y="45" width="90" height="35" as="geometry" />
        </mxCell>
        <mxCell id="BDL2UbOn3JsSijbBYsNf-138" value="" style="endArrow=none;html=1;rounded=1;fontFamily=Helvetica;fontSize=13;fontColor=default;exitX=0.343;exitY=0.172;exitDx=0;exitDy=0;exitPerimeter=0;entryX=0.613;entryY=0.99;entryDx=0;entryDy=0;entryPerimeter=0;" parent="1" source="BDL2UbOn3JsSijbBYsNf-129" target="BDL2UbOn3JsSijbBYsNf-139" edge="1">
          <mxGeometry width="50" height="50" relative="1" as="geometry">
            <mxPoint x="680" y="115" as="sourcePoint" />
            <mxPoint x="670" y="80" as="targetPoint" />
          </mxGeometry>
        </mxCell>
        <mxCell id="BDL2UbOn3JsSijbBYsNf-139" value="Entry" style="ellipse;whiteSpace=wrap;html=1;align=center;rounded=1;strokeColor=#6c8ebf;verticalAlign=middle;fontFamily=Helvetica;fontSize=13;fillColor=#dae8fc;" parent="1" vertex="1">
          <mxGeometry x="615" y="45" width="90" height="35" as="geometry" />
        </mxCell>
        <mxCell id="BDL2UbOn3JsSijbBYsNf-142" value="" style="endArrow=none;html=1;rounded=1;fontFamily=Helvetica;fontSize=13;fontColor=default;exitX=0.115;exitY=0.032;exitDx=0;exitDy=0;exitPerimeter=0;entryX=0.361;entryY=0.93;entryDx=0;entryDy=0;entryPerimeter=0;" parent="1" source="BDL2UbOn3JsSijbBYsNf-133" target="BDL2UbOn3JsSijbBYsNf-145" edge="1">
          <mxGeometry width="50" height="50" relative="1" as="geometry">
            <mxPoint x="890" y="120" as="sourcePoint" />
            <mxPoint x="968.6099999999999" y="74.33500000000004" as="targetPoint" />
          </mxGeometry>
        </mxCell>
        <mxCell id="BDL2UbOn3JsSijbBYsNf-145" value="Room_ID" style="ellipse;whiteSpace=wrap;html=1;align=center;fontStyle=4;rounded=1;strokeColor=#6c8ebf;verticalAlign=middle;fontFamily=Helvetica;fontSize=12;fillColor=#dae8fc;" parent="1" vertex="1">
          <mxGeometry x="930" y="37.5" width="90" height="35" as="geometry" />
        </mxCell>
        <mxCell id="BDL2UbOn3JsSijbBYsNf-146" value="" style="endArrow=none;html=1;rounded=1;fontFamily=Helvetica;fontSize=12;fontColor=default;exitX=0.784;exitY=0.01;exitDx=0;exitDy=0;exitPerimeter=0;entryX=0.328;entryY=0.958;entryDx=0;entryDy=0;entryPerimeter=0;" parent="1" source="BDL2UbOn3JsSijbBYsNf-133" target="BDL2UbOn3JsSijbBYsNf-147" edge="1">
          <mxGeometry width="50" height="50" relative="1" as="geometry">
            <mxPoint x="1030" y="110" as="sourcePoint" />
            <mxPoint x="1070" y="80" as="targetPoint" />
          </mxGeometry>
        </mxCell>
        <mxCell id="BDL2UbOn3JsSijbBYsNf-147" value="Floor" style="ellipse;whiteSpace=wrap;html=1;align=center;rounded=1;strokeColor=#6c8ebf;verticalAlign=middle;fontFamily=Helvetica;fontSize=13;fillColor=#dae8fc;" parent="1" vertex="1">
          <mxGeometry x="1030" y="40" width="90" height="35" as="geometry" />
        </mxCell>
        <mxCell id="BDL2UbOn3JsSijbBYsNf-148" value="" style="endArrow=none;html=1;rounded=1;fontFamily=Helvetica;fontSize=12;fontColor=default;entryX=0.293;entryY=1.008;entryDx=0;entryDy=0;entryPerimeter=0;exitX=0.529;exitY=0.057;exitDx=0;exitDy=0;exitPerimeter=0;" parent="1" source="BDL2UbOn3JsSijbBYsNf-149" target="BDL2UbOn3JsSijbBYsNf-133" edge="1">
          <mxGeometry width="50" height="50" relative="1" as="geometry">
            <mxPoint x="976" y="170" as="sourcePoint" />
            <mxPoint x="990" y="140" as="targetPoint" />
          </mxGeometry>
        </mxCell>
        <mxCell id="BDL2UbOn3JsSijbBYsNf-149" value="Capacity" style="ellipse;whiteSpace=wrap;html=1;align=center;rounded=1;strokeColor=#6c8ebf;verticalAlign=middle;fontFamily=Helvetica;fontSize=13;fillColor=#dae8fc;" parent="1" vertex="1">
          <mxGeometry x="925" y="167.5" width="90" height="35" as="geometry" />
        </mxCell>
        <mxCell id="BDL2UbOn3JsSijbBYsNf-151" value="" style="endArrow=none;html=1;rounded=0;fontFamily=Helvetica;fontSize=12;fontColor=default;entryX=0.15;entryY=0.666;entryDx=0;entryDy=0;entryPerimeter=0;exitX=0.962;exitY=0.064;exitDx=0;exitDy=0;exitPerimeter=0;" parent="1" source="BDL2UbOn3JsSijbBYsNf-1" target="BDL2UbOn3JsSijbBYsNf-154" edge="1">
          <mxGeometry relative="1" as="geometry">
            <mxPoint x="480" y="372" as="sourcePoint" />
            <mxPoint x="720" y="300" as="targetPoint" />
          </mxGeometry>
        </mxCell>
        <mxCell id="BDL2UbOn3JsSijbBYsNf-153" value="" style="endArrow=none;html=1;rounded=0;fontFamily=Helvetica;fontSize=12;fontColor=default;exitX=0.99;exitY=0.649;exitDx=0;exitDy=0;exitPerimeter=0;entryX=0.398;entryY=0.11;entryDx=0;entryDy=0;entryPerimeter=0;" parent="1" source="BDL2UbOn3JsSijbBYsNf-97" target="BDL2UbOn3JsSijbBYsNf-154" edge="1">
          <mxGeometry relative="1" as="geometry">
            <mxPoint x="630" y="230" as="sourcePoint" />
            <mxPoint x="790" y="230" as="targetPoint" />
          </mxGeometry>
        </mxCell>
        <mxCell id="BDL2UbOn3JsSijbBYsNf-154" value="Perform" style="shape=rhombus;perimeter=rhombusPerimeter;whiteSpace=wrap;html=1;align=center;rounded=1;strokeColor=#d6b656;verticalAlign=middle;fontFamily=Helvetica;fontSize=16;fillColor=#fff2cc;" parent="1" vertex="1">
          <mxGeometry x="760" y="260" width="120" height="60" as="geometry" />
        </mxCell>
        <mxCell id="BDL2UbOn3JsSijbBYsNf-155" value="" style="endArrow=none;html=1;rounded=0;fontFamily=Helvetica;fontSize=12;fontColor=default;exitX=0.958;exitY=0.513;exitDx=0;exitDy=0;exitPerimeter=0;entryX=0;entryY=0.5;entryDx=0;entryDy=0;" parent="1" source="BDL2UbOn3JsSijbBYsNf-154" target="BDL2UbOn3JsSijbBYsNf-156" edge="1">
          <mxGeometry relative="1" as="geometry">
            <mxPoint x="880" y="289.71" as="sourcePoint" />
            <mxPoint x="1040" y="289.71" as="targetPoint" />
          </mxGeometry>
        </mxCell>
        <mxCell id="BDL2UbOn3JsSijbBYsNf-156" value="Operation" style="rounded=1;arcSize=10;whiteSpace=wrap;html=1;align=center;strokeColor=#b85450;verticalAlign=middle;fontFamily=Helvetica;fontSize=14;fillColor=#f8cecc;" parent="1" vertex="1">
          <mxGeometry x="1040" y="272.5" width="95" height="35" as="geometry" />
        </mxCell>
        <mxCell id="BDL2UbOn3JsSijbBYsNf-157" value="" style="endArrow=none;html=1;rounded=1;fontFamily=Helvetica;fontSize=12;fontColor=default;exitX=0.43;exitY=0.006;exitDx=0;exitDy=0;exitPerimeter=0;entryX=0.523;entryY=0.983;entryDx=0;entryDy=0;entryPerimeter=0;" parent="1" source="BDL2UbOn3JsSijbBYsNf-156" target="BDL2UbOn3JsSijbBYsNf-158" edge="1">
          <mxGeometry width="50" height="50" relative="1" as="geometry">
            <mxPoint x="1080" y="270" as="sourcePoint" />
            <mxPoint x="1070" y="240" as="targetPoint" />
          </mxGeometry>
        </mxCell>
        <mxCell id="BDL2UbOn3JsSijbBYsNf-158" value="Operation_ID" style="ellipse;whiteSpace=wrap;html=1;align=center;fontStyle=4;rounded=1;strokeColor=#6c8ebf;verticalAlign=middle;fontFamily=Helvetica;fontSize=12;fillColor=#dae8fc;" parent="1" vertex="1">
          <mxGeometry x="1030" y="205" width="90" height="35" as="geometry" />
        </mxCell>
        <mxCell id="BDL2UbOn3JsSijbBYsNf-159" value="" style="endArrow=none;html=1;rounded=1;fontFamily=Helvetica;fontSize=12;fontColor=default;entryX=0.193;entryY=0.99;entryDx=0;entryDy=0;entryPerimeter=0;exitX=0.612;exitY=0.046;exitDx=0;exitDy=0;exitPerimeter=0;" parent="1" source="BDL2UbOn3JsSijbBYsNf-160" target="BDL2UbOn3JsSijbBYsNf-156" edge="1">
          <mxGeometry width="50" height="50" relative="1" as="geometry">
            <mxPoint x="1040" y="340" as="sourcePoint" />
            <mxPoint x="1080" y="300" as="targetPoint" />
          </mxGeometry>
        </mxCell>
        <mxCell id="BDL2UbOn3JsSijbBYsNf-160" value="Description" style="ellipse;whiteSpace=wrap;html=1;align=center;rounded=1;strokeColor=#6c8ebf;verticalAlign=middle;fontFamily=Helvetica;fontSize=13;fillColor=#dae8fc;" parent="1" vertex="1">
          <mxGeometry x="990" y="330" width="90" height="30" as="geometry" />
        </mxCell>
        <mxCell id="BDL2UbOn3JsSijbBYsNf-161" value="" style="endArrow=none;html=1;rounded=1;fontFamily=Helvetica;fontSize=12;fontColor=default;entryX=0.911;entryY=0.997;entryDx=0;entryDy=0;entryPerimeter=0;exitX=0.568;exitY=0.021;exitDx=0;exitDy=0;exitPerimeter=0;" parent="1" source="BDL2UbOn3JsSijbBYsNf-162" target="BDL2UbOn3JsSijbBYsNf-156" edge="1">
          <mxGeometry width="50" height="50" relative="1" as="geometry">
            <mxPoint x="1120" y="340" as="sourcePoint" />
            <mxPoint x="1090" y="310" as="targetPoint" />
          </mxGeometry>
        </mxCell>
        <mxCell id="BDL2UbOn3JsSijbBYsNf-162" value="Date" style="ellipse;whiteSpace=wrap;html=1;align=center;rounded=1;strokeColor=#6c8ebf;verticalAlign=middle;fontFamily=Helvetica;fontSize=13;fillColor=#dae8fc;" parent="1" vertex="1">
          <mxGeometry x="1110" y="330" width="90" height="35" as="geometry" />
        </mxCell>
        <mxCell id="BDL2UbOn3JsSijbBYsNf-163" value="" style="endArrow=none;html=1;rounded=0;fontFamily=Helvetica;fontSize=12;fontColor=default;entryX=0.405;entryY=1;entryDx=0;entryDy=0;entryPerimeter=0;exitX=0.506;exitY=0.041;exitDx=0;exitDy=0;exitPerimeter=0;" parent="1" edge="1">
          <mxGeometry relative="1" as="geometry">
            <mxPoint x="424.9999999999999" y="552.46" as="sourcePoint" />
            <mxPoint x="425.7299999999999" y="405" as="targetPoint" />
          </mxGeometry>
        </mxCell>
        <mxCell id="BDL2UbOn3JsSijbBYsNf-164" value="1" style="resizable=0;html=1;whiteSpace=wrap;align=right;verticalAlign=bottom;rounded=1;strokeColor=default;fontFamily=Helvetica;fontSize=12;fontColor=default;fillColor=default;" parent="BDL2UbOn3JsSijbBYsNf-163" connectable="0" vertex="1">
          <mxGeometry x="1" relative="1" as="geometry">
            <mxPoint x="10" y="23" as="offset" />
          </mxGeometry>
        </mxCell>
        <mxCell id="BDL2UbOn3JsSijbBYsNf-165" value="Supervise" style="shape=rhombus;perimeter=rhombusPerimeter;whiteSpace=wrap;html=1;align=center;rounded=1;strokeColor=#d6b656;verticalAlign=middle;fontFamily=Helvetica;fontSize=16;fillColor=#fff2cc;" parent="1" vertex="1">
          <mxGeometry x="365" y="550" width="120" height="60" as="geometry" />
        </mxCell>
        <mxCell id="BDL2UbOn3JsSijbBYsNf-166" value="" style="shape=link;html=1;rounded=0;fontFamily=Helvetica;fontSize=12;fontColor=default;exitX=0.51;exitY=0.957;exitDx=0;exitDy=0;exitPerimeter=0;entryX=0.496;entryY=0.07;entryDx=0;entryDy=0;entryPerimeter=0;" parent="1" target="BDL2UbOn3JsSijbBYsNf-168" edge="1">
          <mxGeometry relative="1" as="geometry">
            <mxPoint x="425.19999999999993" y="607.4200000000001" as="sourcePoint" />
            <mxPoint x="425" y="690" as="targetPoint" />
          </mxGeometry>
        </mxCell>
        <mxCell id="BDL2UbOn3JsSijbBYsNf-167" value="N" style="resizable=0;html=1;whiteSpace=wrap;align=right;verticalAlign=bottom;rounded=1;strokeColor=default;fontFamily=Helvetica;fontSize=12;fontColor=default;fillColor=default;" parent="BDL2UbOn3JsSijbBYsNf-166" connectable="0" vertex="1">
          <mxGeometry x="1" relative="1" as="geometry">
            <mxPoint x="-3" as="offset" />
          </mxGeometry>
        </mxCell>
        <mxCell id="BDL2UbOn3JsSijbBYsNf-168" value="Nurse" style="rounded=1;arcSize=10;whiteSpace=wrap;html=1;align=center;strokeColor=#b85450;verticalAlign=middle;fontFamily=Helvetica;fontSize=14;fillColor=#f8cecc;" parent="1" vertex="1">
          <mxGeometry x="380" y="690" width="95" height="35" as="geometry" />
        </mxCell>
        <mxCell id="BDL2UbOn3JsSijbBYsNf-169" value="" style="endArrow=none;html=1;rounded=1;fontFamily=Helvetica;fontSize=12;fontColor=default;entryX=0.215;entryY=1.004;entryDx=0;entryDy=0;entryPerimeter=0;exitX=0.418;exitY=0.019;exitDx=0;exitDy=0;exitPerimeter=0;" parent="1" source="BDL2UbOn3JsSijbBYsNf-170" target="BDL2UbOn3JsSijbBYsNf-168" edge="1">
          <mxGeometry width="50" height="50" relative="1" as="geometry">
            <mxPoint x="390" y="750" as="sourcePoint" />
            <mxPoint x="425" y="725" as="targetPoint" />
          </mxGeometry>
        </mxCell>
        <mxCell id="BDL2UbOn3JsSijbBYsNf-170" value="Nurse_ID" style="ellipse;whiteSpace=wrap;html=1;align=center;fontStyle=4;rounded=1;strokeColor=#6c8ebf;verticalAlign=middle;fontFamily=Helvetica;fontSize=13;fillColor=#dae8fc;" parent="1" vertex="1">
          <mxGeometry x="352.5" y="750" width="90" height="35" as="geometry" />
        </mxCell>
        <mxCell id="BDL2UbOn3JsSijbBYsNf-174" value="Name" style="ellipse;whiteSpace=wrap;html=1;align=center;rounded=1;fillColor=#dae8fc;strokeColor=#6c8ebf;fontSize=13;" parent="1" vertex="1">
          <mxGeometry x="450" y="750" width="90" height="35" as="geometry" />
        </mxCell>
        <mxCell id="BDL2UbOn3JsSijbBYsNf-175" value="first_name" style="ellipse;whiteSpace=wrap;html=1;align=center;rounded=1;strokeColor=#6c8ebf;verticalAlign=middle;fontFamily=Helvetica;fontSize=12;fillColor=#dae8fc;" parent="1" vertex="1">
          <mxGeometry x="400" y="800" width="85" height="30" as="geometry" />
        </mxCell>
        <mxCell id="BDL2UbOn3JsSijbBYsNf-176" value="last_name" style="ellipse;whiteSpace=wrap;html=1;align=center;rounded=1;fillColor=#dae8fc;strokeColor=#6c8ebf;fontSize=12;" parent="1" vertex="1">
          <mxGeometry x="500" y="800" width="85" height="30" as="geometry" />
        </mxCell>
        <mxCell id="BDL2UbOn3JsSijbBYsNf-178" value="" style="endArrow=none;html=1;rounded=1;fontFamily=Helvetica;fontSize=12;fontColor=default;entryX=0.668;entryY=0.99;entryDx=0;entryDy=0;entryPerimeter=0;exitX=0.178;exitY=0.117;exitDx=0;exitDy=0;exitPerimeter=0;" parent="1" source="BDL2UbOn3JsSijbBYsNf-174" target="BDL2UbOn3JsSijbBYsNf-168" edge="1">
          <mxGeometry width="50" height="50" relative="1" as="geometry">
            <mxPoint x="520" y="790" as="sourcePoint" />
            <mxPoint x="570" y="740" as="targetPoint" />
          </mxGeometry>
        </mxCell>
        <mxCell id="BDL2UbOn3JsSijbBYsNf-179" value="" style="endArrow=none;html=1;rounded=1;fontFamily=Helvetica;fontSize=12;fontColor=default;entryX=0.199;entryY=0.875;entryDx=0;entryDy=0;entryPerimeter=0;exitX=0.55;exitY=0.024;exitDx=0;exitDy=0;exitPerimeter=0;" parent="1" source="BDL2UbOn3JsSijbBYsNf-175" target="BDL2UbOn3JsSijbBYsNf-174" edge="1">
          <mxGeometry width="50" height="50" relative="1" as="geometry">
            <mxPoint x="425" y="820" as="sourcePoint" />
            <mxPoint x="475" y="770" as="targetPoint" />
          </mxGeometry>
        </mxCell>
        <mxCell id="BDL2UbOn3JsSijbBYsNf-180" value="" style="endArrow=none;html=1;rounded=1;fontFamily=Helvetica;fontSize=12;fontColor=default;entryX=0.604;entryY=0.994;entryDx=0;entryDy=0;entryPerimeter=0;exitX=0.358;exitY=0.037;exitDx=0;exitDy=0;exitPerimeter=0;" parent="1" source="BDL2UbOn3JsSijbBYsNf-176" target="BDL2UbOn3JsSijbBYsNf-174" edge="1">
          <mxGeometry width="50" height="50" relative="1" as="geometry">
            <mxPoint x="520" y="790" as="sourcePoint" />
            <mxPoint x="570" y="740" as="targetPoint" />
          </mxGeometry>
        </mxCell>
        <mxCell id="BDL2UbOn3JsSijbBYsNf-181" value="" style="endArrow=none;html=1;rounded=0;fontFamily=Helvetica;fontSize=12;fontColor=default;exitX=1;exitY=0.25;exitDx=0;exitDy=0;edgeStyle=orthogonalEdgeStyle;entryX=0.5;entryY=1;entryDx=0;entryDy=0;" parent="1" source="BDL2UbOn3JsSijbBYsNf-168" target="BDL2UbOn3JsSijbBYsNf-156" edge="1">
          <mxGeometry relative="1" as="geometry">
            <mxPoint x="470" y="700.2" as="sourcePoint" />
            <mxPoint x="1120" y="700" as="targetPoint" />
          </mxGeometry>
        </mxCell>
        <mxCell id="BDL2UbOn3JsSijbBYsNf-182" value="M" style="resizable=0;html=1;whiteSpace=wrap;align=left;verticalAlign=bottom;rounded=1;strokeColor=default;fontFamily=Helvetica;fontSize=12;fontColor=default;fillColor=default;" parent="BDL2UbOn3JsSijbBYsNf-181" connectable="0" vertex="1">
          <mxGeometry x="-1" relative="1" as="geometry">
            <mxPoint x="2" as="offset" />
          </mxGeometry>
        </mxCell>
        <mxCell id="BDL2UbOn3JsSijbBYsNf-183" value="N" style="resizable=0;html=1;whiteSpace=wrap;align=right;verticalAlign=bottom;rounded=1;strokeColor=default;fontFamily=Helvetica;fontSize=12;fontColor=default;fillColor=default;" parent="BDL2UbOn3JsSijbBYsNf-181" connectable="0" vertex="1">
          <mxGeometry x="1" relative="1" as="geometry">
            <mxPoint x="-1" y="16" as="offset" />
          </mxGeometry>
        </mxCell>
        <mxCell id="BDL2UbOn3JsSijbBYsNf-184" value="Help" style="shape=rhombus;perimeter=rhombusPerimeter;whiteSpace=wrap;html=1;align=center;rounded=1;strokeColor=#d6b656;verticalAlign=middle;fontFamily=Helvetica;fontSize=16;fillColor=#fff2cc;" parent="1" vertex="1">
          <mxGeometry x="830" y="670" width="120" height="60" as="geometry" />
        </mxCell>
        <mxCell id="BDL2UbOn3JsSijbBYsNf-198" value="Take_Care" style="shape=rhombus;perimeter=rhombusPerimeter;whiteSpace=wrap;html=1;align=center;rounded=1;strokeColor=#d6b656;verticalAlign=middle;fontFamily=Helvetica;fontSize=16;fillColor=#fff2cc;" parent="1" vertex="1">
          <mxGeometry x="1190" y="450" width="120" height="60" as="geometry" />
        </mxCell>
        <mxCell id="t5Fg0YKXx1d9ERBlGr_o-1" value="" style="shape=link;html=1;rounded=0;entryX=0.339;entryY=1.008;entryDx=0;entryDy=0;exitX=0.531;exitY=0.068;exitDx=0;exitDy=0;entryPerimeter=0;exitPerimeter=0;" parent="1" source="t5Fg0YKXx1d9ERBlGr_o-3" target="BDL2UbOn3JsSijbBYsNf-1" edge="1">
          <mxGeometry relative="1" as="geometry">
            <mxPoint x="338.99999999999994" y="507.86000000000007" as="sourcePoint" />
            <mxPoint x="424.72499999999997" y="405.00000000000017" as="targetPoint" />
          </mxGeometry>
        </mxCell>
        <mxCell id="t5Fg0YKXx1d9ERBlGr_o-2" value="N" style="resizable=0;html=1;whiteSpace=wrap;align=right;verticalAlign=bottom;" parent="t5Fg0YKXx1d9ERBlGr_o-1" connectable="0" vertex="1">
          <mxGeometry x="1" relative="1" as="geometry">
            <mxPoint x="-12" y="16" as="offset" />
          </mxGeometry>
        </mxCell>
        <mxCell id="t5Fg0YKXx1d9ERBlGr_o-3" value="Has" style="shape=rhombus;perimeter=rhombusPerimeter;whiteSpace=wrap;html=1;align=center;rounded=1;shadow=0;fillColor=#fff2cc;strokeColor=#d6b656;fontSize=16;" parent="1" vertex="1">
          <mxGeometry x="280" y="510" width="120" height="60" as="geometry" />
        </mxCell>
        <mxCell id="t5Fg0YKXx1d9ERBlGr_o-6" value="" style="shape=link;html=1;rounded=0;entryX=0.86;entryY=0.025;entryDx=0;entryDy=0;entryPerimeter=0;exitX=0;exitY=1;exitDx=0;exitDy=0;" parent="1" source="t5Fg0YKXx1d9ERBlGr_o-3" target="t5Fg0YKXx1d9ERBlGr_o-8" edge="1">
          <mxGeometry relative="1" as="geometry">
            <mxPoint x="305" y="560" as="sourcePoint" />
            <mxPoint x="225.32999999999998" y="642.18" as="targetPoint" />
          </mxGeometry>
        </mxCell>
        <mxCell id="t5Fg0YKXx1d9ERBlGr_o-7" value="1" style="resizable=0;html=1;whiteSpace=wrap;align=right;verticalAlign=bottom;" parent="t5Fg0YKXx1d9ERBlGr_o-6" connectable="0" vertex="1">
          <mxGeometry x="1" relative="1" as="geometry">
            <mxPoint x="6" y="-3" as="offset" />
          </mxGeometry>
        </mxCell>
        <mxCell id="t5Fg0YKXx1d9ERBlGr_o-8" value="Specialization" style="rounded=1;arcSize=10;whiteSpace=wrap;html=1;align=center;fillColor=#f8cecc;strokeColor=#b85450;fontSize=14;" parent="1" vertex="1">
          <mxGeometry x="160" y="630" width="95" height="35" as="geometry" />
        </mxCell>
        <mxCell id="t5Fg0YKXx1d9ERBlGr_o-9" value="" style="endArrow=none;html=1;rounded=0;entryX=0.829;entryY=0.976;entryDx=0;entryDy=0;entryPerimeter=0;exitX=0.39;exitY=0.009;exitDx=0;exitDy=0;exitPerimeter=0;" parent="1" source="t5Fg0YKXx1d9ERBlGr_o-10" target="t5Fg0YKXx1d9ERBlGr_o-8" edge="1">
          <mxGeometry width="50" height="50" relative="1" as="geometry">
            <mxPoint x="260" y="710" as="sourcePoint" />
            <mxPoint x="240" y="665" as="targetPoint" />
          </mxGeometry>
        </mxCell>
        <mxCell id="t5Fg0YKXx1d9ERBlGr_o-10" value="Start_Date" style="ellipse;whiteSpace=wrap;html=1;align=center;fillColor=#dae8fc;strokeColor=#6c8ebf;fontSize=13;" parent="1" vertex="1">
          <mxGeometry x="220" y="700" width="90" height="35" as="geometry" />
        </mxCell>
        <mxCell id="t5Fg0YKXx1d9ERBlGr_o-11" value="" style="endArrow=none;html=1;rounded=0;" parent="1" edge="1">
          <mxGeometry width="50" height="50" relative="1" as="geometry">
            <mxPoint x="160" y="710" as="sourcePoint" />
            <mxPoint x="190" y="665" as="targetPoint" />
          </mxGeometry>
        </mxCell>
        <mxCell id="t5Fg0YKXx1d9ERBlGr_o-13" value="Name" style="ellipse;whiteSpace=wrap;html=1;align=center;fontStyle=4;fontSize=13;fillColor=#dae8fc;strokeColor=#6c8ebf;" parent="1" vertex="1">
          <mxGeometry x="100" y="700" width="90" height="35" as="geometry" />
        </mxCell>
        <mxCell id="t5Fg0YKXx1d9ERBlGr_o-14" value="" style="endArrow=none;html=1;rounded=0;entryX=0.032;entryY=1.035;entryDx=0;entryDy=0;entryPerimeter=0;exitX=0.791;exitY=0.316;exitDx=0;exitDy=0;exitPerimeter=0;" parent="1" source="t5Fg0YKXx1d9ERBlGr_o-16" target="BDL2UbOn3JsSijbBYsNf-1" edge="1">
          <mxGeometry relative="1" as="geometry">
            <mxPoint x="310" y="450" as="sourcePoint" />
            <mxPoint x="270" y="490" as="targetPoint" />
          </mxGeometry>
        </mxCell>
        <mxCell id="t5Fg0YKXx1d9ERBlGr_o-15" value="1" style="resizable=0;html=1;whiteSpace=wrap;align=right;verticalAlign=bottom;" parent="t5Fg0YKXx1d9ERBlGr_o-14" connectable="0" vertex="1">
          <mxGeometry x="1" relative="1" as="geometry">
            <mxPoint x="-4" y="3" as="offset" />
          </mxGeometry>
        </mxCell>
        <mxCell id="t5Fg0YKXx1d9ERBlGr_o-16" value="Manage" style="shape=rhombus;perimeter=rhombusPerimeter;whiteSpace=wrap;html=1;align=center;rounded=1;fillColor=#fff2cc;strokeColor=#d6b656;fontSize=14;" parent="1" vertex="1">
          <mxGeometry x="205" y="450" width="120" height="60" as="geometry" />
        </mxCell>
        <mxCell id="t5Fg0YKXx1d9ERBlGr_o-17" value="" style="shape=link;html=1;rounded=0;entryX=0.382;entryY=-0.021;entryDx=0;entryDy=0;entryPerimeter=0;exitX=0.452;exitY=0.961;exitDx=0;exitDy=0;exitPerimeter=0;" parent="1" source="t5Fg0YKXx1d9ERBlGr_o-16" target="t5Fg0YKXx1d9ERBlGr_o-8" edge="1">
          <mxGeometry relative="1" as="geometry">
            <mxPoint x="230" y="510" as="sourcePoint" />
            <mxPoint x="110" y="508.75" as="targetPoint" />
          </mxGeometry>
        </mxCell>
        <mxCell id="t5Fg0YKXx1d9ERBlGr_o-18" value="1" style="resizable=0;html=1;whiteSpace=wrap;align=right;verticalAlign=bottom;" parent="t5Fg0YKXx1d9ERBlGr_o-17" connectable="0" vertex="1">
          <mxGeometry x="1" relative="1" as="geometry">
            <mxPoint x="-1" y="-1" as="offset" />
          </mxGeometry>
        </mxCell>
        <mxCell id="t5Fg0YKXx1d9ERBlGr_o-20" value="" style="shape=link;html=1;rounded=0;entryX=0;entryY=0.5;entryDx=0;entryDy=0;exitX=0.953;exitY=0.5;exitDx=0;exitDy=0;exitPerimeter=0;" parent="1" source="t5Fg0YKXx1d9ERBlGr_o-22" edge="1">
          <mxGeometry relative="1" as="geometry">
            <mxPoint x="25.320000000000164" y="647.5400000000002" as="sourcePoint" />
            <mxPoint x="160" y="648.5" as="targetPoint" />
          </mxGeometry>
        </mxCell>
        <mxCell id="t5Fg0YKXx1d9ERBlGr_o-21" value="1" style="resizable=0;html=1;whiteSpace=wrap;align=right;verticalAlign=bottom;" parent="t5Fg0YKXx1d9ERBlGr_o-20" connectable="0" vertex="1">
          <mxGeometry x="1" relative="1" as="geometry" />
        </mxCell>
        <mxCell id="t5Fg0YKXx1d9ERBlGr_o-22" value="Has" style="shape=rhombus;perimeter=rhombusPerimeter;whiteSpace=wrap;html=1;align=center;rounded=1;fillColor=#fff2cc;strokeColor=#d6b656;fontSize=16;" parent="1" vertex="1">
          <mxGeometry x="-90" y="617.5" width="120" height="60" as="geometry" />
        </mxCell>
        <mxCell id="t5Fg0YKXx1d9ERBlGr_o-26" value="" style="shape=link;html=1;rounded=0;exitX=0.038;exitY=0.511;exitDx=0;exitDy=0;exitPerimeter=0;edgeStyle=orthogonalEdgeStyle;entryX=0.5;entryY=1;entryDx=0;entryDy=0;" parent="1" source="t5Fg0YKXx1d9ERBlGr_o-22" target="t5Fg0YKXx1d9ERBlGr_o-28" edge="1">
          <mxGeometry relative="1" as="geometry">
            <mxPoint x="-89.99999999999993" y="646.7299999999998" as="sourcePoint" />
            <mxPoint x="-240" y="410" as="targetPoint" />
            <Array as="points">
              <mxPoint x="-362" y="648" />
              <mxPoint x="-362" y="400" />
            </Array>
          </mxGeometry>
        </mxCell>
        <mxCell id="t5Fg0YKXx1d9ERBlGr_o-27" value="N" style="resizable=0;html=1;whiteSpace=wrap;align=right;verticalAlign=bottom;" parent="t5Fg0YKXx1d9ERBlGr_o-26" connectable="0" vertex="1">
          <mxGeometry x="1" relative="1" as="geometry">
            <mxPoint x="-5" y="16" as="offset" />
          </mxGeometry>
        </mxCell>
        <mxCell id="t5Fg0YKXx1d9ERBlGr_o-28" value="Clinic" style="rounded=1;arcSize=10;whiteSpace=wrap;html=1;align=center;fillColor=#f8cecc;strokeColor=#b85450;fontSize=14;" parent="1" vertex="1">
          <mxGeometry x="-410" y="360" width="95" height="35" as="geometry" />
        </mxCell>
        <mxCell id="t5Fg0YKXx1d9ERBlGr_o-29" value="" style="endArrow=none;html=1;rounded=0;exitX=0.854;exitY=-0.006;exitDx=0;exitDy=0;exitPerimeter=0;entryX=0.439;entryY=1.02;entryDx=0;entryDy=0;entryPerimeter=0;" parent="1" source="t5Fg0YKXx1d9ERBlGr_o-28" target="t5Fg0YKXx1d9ERBlGr_o-30" edge="1">
          <mxGeometry width="50" height="50" relative="1" as="geometry">
            <mxPoint x="-220" y="367.5" as="sourcePoint" />
            <mxPoint x="-200" y="330" as="targetPoint" />
          </mxGeometry>
        </mxCell>
        <mxCell id="t5Fg0YKXx1d9ERBlGr_o-30" value="Clinc_Name" style="ellipse;whiteSpace=wrap;html=1;align=center;fontSize=13;fillColor=#dae8fc;strokeColor=#6c8ebf;" parent="1" vertex="1">
          <mxGeometry x="-350" y="310" width="90" height="35" as="geometry" />
        </mxCell>
        <mxCell id="t5Fg0YKXx1d9ERBlGr_o-31" value="" style="endArrow=none;html=1;rounded=0;exitX=0.131;exitY=0.016;exitDx=0;exitDy=0;exitPerimeter=0;entryX=0.551;entryY=0.988;entryDx=0;entryDy=0;entryPerimeter=0;" parent="1" source="t5Fg0YKXx1d9ERBlGr_o-28" target="t5Fg0YKXx1d9ERBlGr_o-33" edge="1">
          <mxGeometry width="50" height="50" relative="1" as="geometry">
            <mxPoint x="-280" y="365" as="sourcePoint" />
            <mxPoint x="-290" y="325" as="targetPoint" />
          </mxGeometry>
        </mxCell>
        <mxCell id="t5Fg0YKXx1d9ERBlGr_o-33" value="Clinic_ID" style="ellipse;whiteSpace=wrap;html=1;align=center;fontStyle=4;fillColor=#dae8fc;strokeColor=#6c8ebf;" parent="1" vertex="1">
          <mxGeometry x="-460" y="295" width="90" height="35" as="geometry" />
        </mxCell>
        <mxCell id="t5Fg0YKXx1d9ERBlGr_o-34" value="" style="endArrow=none;html=1;rounded=0;entryX=0;entryY=0.5;entryDx=0;entryDy=0;exitX=0.787;exitY=0.112;exitDx=0;exitDy=0;exitPerimeter=0;" parent="1" source="t5Fg0YKXx1d9ERBlGr_o-35" target="t5Fg0YKXx1d9ERBlGr_o-28" edge="1">
          <mxGeometry width="50" height="50" relative="1" as="geometry">
            <mxPoint x="-340" y="400" as="sourcePoint" />
            <mxPoint x="-290" y="380" as="targetPoint" />
          </mxGeometry>
        </mxCell>
        <mxCell id="t5Fg0YKXx1d9ERBlGr_o-35" value="Floor" style="ellipse;whiteSpace=wrap;html=1;align=center;fontSize=13;fillColor=#dae8fc;strokeColor=#6c8ebf;" parent="1" vertex="1">
          <mxGeometry x="-515" y="385" width="90" height="35" as="geometry" />
        </mxCell>
        <mxCell id="t5Fg0YKXx1d9ERBlGr_o-36" value="" style="endArrow=none;html=1;rounded=0;exitX=1;exitY=0.5;exitDx=0;exitDy=0;entryX=0.039;entryY=0.495;entryDx=0;entryDy=0;entryPerimeter=0;" parent="1" source="t5Fg0YKXx1d9ERBlGr_o-28" target="t5Fg0YKXx1d9ERBlGr_o-37" edge="1">
          <mxGeometry relative="1" as="geometry">
            <mxPoint x="-210" y="384.76" as="sourcePoint" />
            <mxPoint x="-60" y="385" as="targetPoint" />
          </mxGeometry>
        </mxCell>
        <mxCell id="t5Fg0YKXx1d9ERBlGr_o-37" value="IN" style="shape=rhombus;perimeter=rhombusPerimeter;whiteSpace=wrap;html=1;align=center;rounded=1;fillColor=#fff2cc;strokeColor=#d6b656;fontSize=16;" parent="1" vertex="1">
          <mxGeometry x="-240" y="347.5" width="120" height="60" as="geometry" />
        </mxCell>
        <mxCell id="t5Fg0YKXx1d9ERBlGr_o-38" value="" style="shape=link;html=1;rounded=0;exitX=0.961;exitY=0.499;exitDx=0;exitDy=0;exitPerimeter=0;entryX=0;entryY=0.5;entryDx=0;entryDy=0;" parent="1" source="t5Fg0YKXx1d9ERBlGr_o-37" target="t5Fg0YKXx1d9ERBlGr_o-43" edge="1">
          <mxGeometry relative="1" as="geometry">
            <mxPoint x="30" y="384.71" as="sourcePoint" />
            <mxPoint y="377" as="targetPoint" />
          </mxGeometry>
        </mxCell>
        <mxCell id="t5Fg0YKXx1d9ERBlGr_o-39" value="" style="resizable=0;html=1;whiteSpace=wrap;align=right;verticalAlign=bottom;" parent="t5Fg0YKXx1d9ERBlGr_o-38" connectable="0" vertex="1">
          <mxGeometry x="1" relative="1" as="geometry" />
        </mxCell>
        <mxCell id="t5Fg0YKXx1d9ERBlGr_o-43" value="Appoinment" style="shape=ext;margin=3;double=1;whiteSpace=wrap;html=1;align=center;fillColor=#f8cecc;strokeColor=#b85450;fontSize=14;" parent="1" vertex="1">
          <mxGeometry x="-10" y="360" width="95" height="35" as="geometry" />
        </mxCell>
        <mxCell id="t5Fg0YKXx1d9ERBlGr_o-44" value="" style="endArrow=none;html=1;rounded=0;exitX=0.105;exitY=0;exitDx=0;exitDy=0;exitPerimeter=0;" parent="1" source="t5Fg0YKXx1d9ERBlGr_o-43" edge="1">
          <mxGeometry width="50" height="50" relative="1" as="geometry">
            <mxPoint x="-40" y="337.5" as="sourcePoint" />
            <mxPoint x="-10" y="320" as="targetPoint" />
          </mxGeometry>
        </mxCell>
        <mxCell id="t5Fg0YKXx1d9ERBlGr_o-45" value="Start_Hour" style="ellipse;whiteSpace=wrap;html=1;align=center;dashed=1;fillColor=#dae8fc;strokeColor=#6c8ebf;fontSize=13;" parent="1" vertex="1">
          <mxGeometry x="-60" y="285" width="90" height="35" as="geometry" />
        </mxCell>
        <mxCell id="t5Fg0YKXx1d9ERBlGr_o-46" value="End_Hour" style="ellipse;whiteSpace=wrap;html=1;align=center;dashed=1;fillColor=#dae8fc;strokeColor=#6c8ebf;fontSize=13;" parent="1" vertex="1">
          <mxGeometry x="40" y="285" width="90" height="35" as="geometry" />
        </mxCell>
        <mxCell id="t5Fg0YKXx1d9ERBlGr_o-47" value="" style="endArrow=none;html=1;rounded=0;exitX=0.641;exitY=0.001;exitDx=0;exitDy=0;entryX=0.5;entryY=1;entryDx=0;entryDy=0;exitPerimeter=0;" parent="1" source="t5Fg0YKXx1d9ERBlGr_o-43" target="t5Fg0YKXx1d9ERBlGr_o-46" edge="1">
          <mxGeometry width="50" height="50" relative="1" as="geometry">
            <mxPoint x="61.25" y="367.5" as="sourcePoint" />
            <mxPoint x="40" y="327.5" as="targetPoint" />
          </mxGeometry>
        </mxCell>
        <mxCell id="t5Fg0YKXx1d9ERBlGr_o-48" value="Day" style="ellipse;whiteSpace=wrap;html=1;align=center;fillColor=#dae8fc;strokeColor=#6c8ebf;fontSize=13;" parent="1" vertex="1">
          <mxGeometry x="-90" y="420" width="90" height="35" as="geometry" />
        </mxCell>
        <mxCell id="t5Fg0YKXx1d9ERBlGr_o-49" value="Shift_Num" style="ellipse;align=center;fillColor=#dae8fc;strokeColor=#6c8ebf;fontSize=13;fontStyle=0;labelBackgroundColor=none;labelBorderColor=none;textShadow=0;whiteSpace=wrap;html=1;shadow=0;" parent="1" vertex="1">
          <mxGeometry x="20" y="415" width="90" height="35" as="geometry" />
        </mxCell>
        <mxCell id="t5Fg0YKXx1d9ERBlGr_o-50" value="" style="endArrow=none;html=1;rounded=0;entryX=0.088;entryY=1.014;entryDx=0;entryDy=0;entryPerimeter=0;exitX=0.66;exitY=0.039;exitDx=0;exitDy=0;exitPerimeter=0;" parent="1" source="t5Fg0YKXx1d9ERBlGr_o-48" target="t5Fg0YKXx1d9ERBlGr_o-43" edge="1">
          <mxGeometry width="50" height="50" relative="1" as="geometry">
            <mxPoint x="-30" y="420" as="sourcePoint" />
            <mxPoint y="395" as="targetPoint" />
          </mxGeometry>
        </mxCell>
        <mxCell id="t5Fg0YKXx1d9ERBlGr_o-52" value="" style="endArrow=none;html=1;rounded=0;dashed=1;dashPattern=1 2;" parent="1" edge="1">
          <mxGeometry relative="1" as="geometry">
            <mxPoint x="-70" y="447" as="sourcePoint" />
            <mxPoint x="-20" y="446.52" as="targetPoint" />
          </mxGeometry>
        </mxCell>
        <mxCell id="t5Fg0YKXx1d9ERBlGr_o-54" value="" style="endArrow=none;html=1;rounded=0;dashed=1;dashPattern=1 2;" parent="1" edge="1">
          <mxGeometry relative="1" as="geometry">
            <mxPoint x="40" y="440.48" as="sourcePoint" />
            <mxPoint x="90" y="440" as="targetPoint" />
            <Array as="points">
              <mxPoint x="70" y="440.48" />
            </Array>
          </mxGeometry>
        </mxCell>
        <mxCell id="t5Fg0YKXx1d9ERBlGr_o-55" value="" style="shape=link;html=1;rounded=0;exitX=1;exitY=0.5;exitDx=0;exitDy=0;" parent="1" source="t5Fg0YKXx1d9ERBlGr_o-43" edge="1">
          <mxGeometry relative="1" as="geometry">
            <mxPoint x="85" y="377.26" as="sourcePoint" />
            <mxPoint x="190" y="377" as="targetPoint" />
          </mxGeometry>
        </mxCell>
        <mxCell id="t5Fg0YKXx1d9ERBlGr_o-57" value="Has" style="shape=rhombus;double=1;perimeter=rhombusPerimeter;whiteSpace=wrap;html=1;align=center;fillColor=#fff2cc;strokeColor=#d6b656;rounded=1;fontSize=16;" parent="1" vertex="1">
          <mxGeometry x="160" y="347.5" width="120" height="60" as="geometry" />
        </mxCell>
        <mxCell id="t5Fg0YKXx1d9ERBlGr_o-59" value="" style="endArrow=none;html=1;rounded=0;exitX=0.967;exitY=0.488;exitDx=0;exitDy=0;exitPerimeter=0;entryX=0;entryY=0.5;entryDx=0;entryDy=0;" parent="1" source="t5Fg0YKXx1d9ERBlGr_o-57" target="BDL2UbOn3JsSijbBYsNf-1" edge="1">
          <mxGeometry relative="1" as="geometry">
            <mxPoint x="230" y="377.26" as="sourcePoint" />
            <mxPoint x="390" y="377.26" as="targetPoint" />
          </mxGeometry>
        </mxCell>
        <mxCell id="t5Fg0YKXx1d9ERBlGr_o-60" value="" style="endArrow=none;html=1;rounded=0;edgeStyle=orthogonalEdgeStyle;exitX=0.96;exitY=0.997;exitDx=0;exitDy=0;exitPerimeter=0;entryX=0.495;entryY=0.965;entryDx=0;entryDy=0;entryPerimeter=0;" parent="1" source="BDL2UbOn3JsSijbBYsNf-168" target="BDL2UbOn3JsSijbBYsNf-198" edge="1">
          <mxGeometry relative="1" as="geometry">
            <mxPoint x="469.99999999999994" y="729.8950000000004" as="sourcePoint" />
            <mxPoint x="1220" y="506" as="targetPoint" />
          </mxGeometry>
        </mxCell>
        <mxCell id="t5Fg0YKXx1d9ERBlGr_o-61" value="M" style="resizable=0;html=1;whiteSpace=wrap;align=left;verticalAlign=bottom;" parent="t5Fg0YKXx1d9ERBlGr_o-60" connectable="0" vertex="1">
          <mxGeometry x="-1" relative="1" as="geometry">
            <mxPoint x="5" y="7" as="offset" />
          </mxGeometry>
        </mxCell>
        <mxCell id="t5Fg0YKXx1d9ERBlGr_o-68" value="N" style="resizable=0;html=1;whiteSpace=wrap;align=right;verticalAlign=bottom;rounded=1;strokeColor=default;fontFamily=Helvetica;fontSize=12;fontColor=default;fillColor=default;" parent="1" connectable="0" vertex="1">
          <mxGeometry x="1091" y="126" as="geometry" />
        </mxCell>
        <mxCell id="t5Fg0YKXx1d9ERBlGr_o-69" value="" style="endArrow=none;html=1;rounded=0;entryX=0;entryY=0.75;entryDx=0;entryDy=0;" parent="1" target="BDL2UbOn3JsSijbBYsNf-97" edge="1">
          <mxGeometry width="50" height="50" relative="1" as="geometry">
            <mxPoint x="310" y="180" as="sourcePoint" />
            <mxPoint x="330" y="167.5" as="targetPoint" />
          </mxGeometry>
        </mxCell>
        <mxCell id="t5Fg0YKXx1d9ERBlGr_o-70" value="Date_of_Birth" style="ellipse;whiteSpace=wrap;html=1;align=center;rounded=1;strokeColor=#6c8ebf;verticalAlign=middle;fontFamily=Helvetica;fontSize=13;fillColor=#dae8fc;" parent="1" vertex="1">
          <mxGeometry x="240" y="175" width="90" height="35" as="geometry" />
        </mxCell>
      </root>
    </mxGraphModel>
  </diagram>
</mxfile>
